<?xml version="1.0" standalone="no"?>
<!DOCTYPE svg PUBLIC "-//W3C//DTD SVG 20010904//EN"
 "http://www.w3.org/TR/2001/REC-SVG-20010904/DTD/svg10.dtd">
<svg version="1.0" xmlns="http://www.w3.org/2000/svg"
 width="668.000000pt" height="668.000000pt" viewBox="0 0 668.000000 668.000000"
 preserveAspectRatio="xMidYMid meet">
<metadata>
Created by potrace 1.14, written by Peter Selinger 2001-2017
</metadata>
<g transform="translate(0.000000,668.000000) scale(0.100000,-0.100000)"
fill="#000000" stroke="none">
<path d="M3099 6666 c-2 -2 -40 -7 -84 -10 -44 -4 -91 -9 -105 -11 -14 -2 -45
-7 -70 -10 -59 -9 -266 -51 -308 -64 -18 -5 -33 -10 -35 -9 -1 0 -22 -5 -47
-12 -25 -7 -49 -13 -55 -15 -5 -1 -18 -5 -27 -9 -9 -4 -25 -9 -35 -11 -10 -2
-20 -4 -23 -6 -3 -1 -9 -3 -15 -4 -5 -1 -23 -8 -40 -14 -16 -7 -34 -14 -40
-15 -14 -4 -34 -12 -157 -63 -59 -25 -111 -45 -115 -45 -4 -1 -24 -11 -43 -22
-19 -12 -59 -32 -87 -45 -29 -14 -53 -28 -53 -33 0 -5 -4 -7 -9 -4 -5 3 -20
-3 -34 -14 -14 -11 -28 -20 -32 -20 -4 0 -27 -13 -52 -30 -24 -16 -48 -30 -53
-30 -5 0 -15 -6 -22 -13 -7 -7 -34 -26 -60 -42 -27 -17 -48 -33 -48 -37 0 -5
-6 -8 -13 -8 -8 0 -22 -9 -32 -20 -10 -11 -22 -20 -27 -20 -5 0 -15 -6 -22
-12 -7 -7 -25 -22 -40 -33 -39 -29 -94 -74 -140 -117 -22 -20 -43 -35 -48 -32
-4 3 -8 -2 -8 -10 0 -9 -4 -16 -8 -16 -15 0 -341 -336 -342 -351 0 -3 -10 -17
-22 -31 -13 -13 -32 -37 -43 -52 -11 -16 -26 -34 -32 -41 -7 -8 -13 -18 -13
-23 0 -6 -4 -12 -9 -14 -13 -4 -157 -218 -165 -246 -4 -12 -11 -22 -16 -22 -5
0 -12 -10 -16 -22 -3 -13 -13 -31 -22 -40 -8 -10 -11 -18 -6 -18 5 0 5 -4 -1
-8 -5 -4 -23 -34 -40 -67 -16 -33 -33 -61 -37 -63 -5 -2 -8 -9 -8 -15 0 -7
-10 -30 -21 -52 -12 -22 -21 -41 -20 -42 0 -2 -6 -18 -13 -35 -8 -18 -22 -51
-31 -73 -9 -22 -20 -49 -25 -60 -24 -55 -113 -337 -124 -395 -3 -14 -14 -66
-25 -117 -49 -217 -66 -399 -66 -698 0 -215 7 -334 25 -445 5 -30 12 -71 15
-90 5 -32 18 -103 31 -170 11 -55 65 -256 74 -275 6 -11 12 -29 13 -40 4 -20
11 -41 29 -85 5 -14 17 -45 25 -70 8 -25 23 -63 33 -85 74 -168 94 -210 102
-213 4 -2 8 -12 8 -23 0 -10 5 -19 12 -19 6 0 8 -3 5 -7 -4 -3 -3 -11 2 -17 5
-6 26 -42 47 -81 21 -38 53 -94 71 -122 18 -29 33 -55 33 -58 0 -3 9 -14 20
-25 11 -11 20 -27 20 -35 0 -8 4 -15 9 -15 5 0 20 -17 32 -37 13 -21 28 -43
34 -49 5 -6 17 -22 25 -34 14 -21 29 -39 70 -87 10 -12 16 -24 13 -27 -4 -3 2
-6 12 -6 10 0 16 -3 13 -6 -4 -3 14 -26 38 -52 24 -26 44 -53 44 -60 0 -7 4
-11 8 -8 4 2 17 -9 27 -25 11 -16 22 -29 25 -29 3 0 46 -39 96 -88 104 -101
174 -165 174 -158 0 3 10 -5 23 -17 41 -39 84 -74 113 -93 16 -10 32 -22 35
-27 4 -5 15 -14 26 -20 32 -19 207 -136 220 -147 7 -5 19 -10 28 -10 8 0 15
-4 15 -10 0 -5 5 -10 11 -10 6 0 23 -9 38 -19 15 -11 34 -21 41 -23 8 -2 23
-11 34 -20 11 -10 28 -18 38 -18 10 0 18 -4 18 -10 0 -5 4 -10 9 -10 5 0 49
-19 98 -42 48 -23 93 -43 98 -44 6 -1 31 -11 55 -22 38 -16 77 -31 100 -37 3
-1 18 -7 34 -14 25 -10 192 -62 246 -76 25 -7 104 -26 120 -30 121 -26 182
-37 213 -40 21 -2 41 -6 45 -9 4 -2 45 -7 92 -11 47 -4 94 -9 105 -11 11 -3
112 -6 225 -8 274 -4 436 9 705 58 28 5 80 17 130 29 11 3 49 12 85 20 76 18
307 92 333 107 9 6 39 18 65 26 26 9 88 36 139 60 50 24 94 44 97 44 15 0 297
169 308 185 4 5 8 6 8 2 0 -4 15 3 33 17 19 15 39 26 46 26 6 0 14 7 17 15 4
8 12 15 19 15 7 0 15 3 17 8 5 12 86 72 97 72 6 0 11 4 11 8 0 5 25 26 55 48
30 21 55 45 55 52 0 7 4 11 9 8 5 -3 23 9 39 28 17 19 33 32 36 29 3 -4 6 -1
6 5 0 6 17 23 37 37 21 14 35 25 32 25 -3 0 35 42 85 93 49 50 106 113 127
139 20 26 39 44 42 41 3 -3 9 6 13 21 3 14 10 23 15 20 5 -3 9 -1 9 3 0 10 25
44 53 74 9 11 17 22 17 25 0 3 16 25 35 48 19 24 35 48 35 55 0 6 5 11 10 11
6 0 10 5 10 12 0 6 7 20 17 30 9 10 21 27 27 37 6 11 36 62 66 113 31 51 73
129 95 173 22 44 43 81 48 83 4 2 7 8 7 14 0 5 6 24 14 41 8 18 26 61 41 97
14 36 30 74 35 85 15 35 42 110 45 125 2 8 11 35 20 60 18 49 91 344 99 400 3
19 12 80 21 135 23 151 30 279 29 510 -1 248 -15 385 -69 666 -12 62 -67 265
-85 312 -11 29 -20 59 -20 67 0 8 -6 27 -14 42 -8 14 -20 43 -26 65 -7 21 -20
54 -28 73 -9 19 -15 38 -14 43 1 4 -3 7 -8 7 -5 0 -9 3 -8 8 1 4 -9 30 -22 57
-13 28 -24 52 -24 55 -7 35 -205 380 -218 380 -4 0 -8 5 -8 11 0 12 -60 103
-72 107 -4 2 -8 10 -8 18 0 8 -4 14 -8 14 -5 0 -15 12 -23 28 -8 15 -21 34
-29 42 -8 8 -33 38 -55 65 -56 71 -56 71 -97 115 -21 23 -38 45 -38 50 0 6 -4
10 -10 10 -5 0 -28 20 -52 45 -90 96 -109 115 -113 115 -3 0 -26 21 -52 46
-86 82 -296 245 -372 289 -10 6 -25 18 -35 28 -10 9 -24 17 -32 17 -8 0 -14 5
-14 10 0 6 -6 10 -14 10 -8 0 -21 6 -28 13 -7 7 -38 26 -68 43 -30 16 -57 31
-60 35 -4 5 -236 118 -285 139 -124 54 -346 132 -410 145 -5 2 -44 12 -85 23
-41 11 -102 26 -135 33 -33 7 -62 13 -65 14 -3 1 -32 5 -65 10 -33 5 -62 10
-65 10 -3 1 -30 5 -60 9 -30 4 -71 9 -90 12 -43 7 -584 16 -591 10z"/>
</g>
</svg>
